<svg xmlns="http://www.w3.org/2000/svg" width="123" height="39" viewBox="0 0 123 39">
    <g fill="none" fill-rule="evenodd">
        <path fill="#05A" d="M94.167 2.391v8.172h9.308v25.975h8.134V10.563h9.253V2.39H94.167zm-11.989.027l-4.068-.001-.247.722-13.31 33.545h8.792l8.834-22.086 8.834 22.086h8.791L86.495 3.144l-.238-.727-4.079.001zM10.68 4.208c-2.812 1.58-5.004 3.703-6.517 6.311-1.513 2.605-2.279 5.616-2.279 8.95 0 5.15 1.683 9.442 5.003 12.754 3.317 3.31 7.624 4.988 12.803 4.988 2.793 0 5.323-.473 7.523-1.407 2.188-.93 4.526-2.602 6.947-4.968l.684-.668-5.435-5.684-.692.69c-1.65 1.645-3.167 2.786-4.507 3.393-1.32.597-2.806.9-4.414.9-1.883 0-3.613-.433-5.143-1.288-1.517-.845-2.705-2.025-3.533-3.508-.834-1.491-1.258-3.234-1.258-5.182 0-2.808.928-5.101 2.835-7.011 1.909-1.91 4.196-2.839 6.99-2.839 3.35 0 6.297 1.398 9.009 4.272l.662.7 5.586-5.343-.597-.695a19.148 19.148 0 0 0-6.603-4.986 19.04 19.04 0 0 0-7.969-1.753c-3.233 0-6.292.8-9.095 2.375z"/>
        <path fill="#F5822D" d="M37.99 36.66h24.457v-7.69H37.99v7.69zm0-13.437h24.457v-7.69H37.99v7.69zm0-13.132h24.458V2.403H37.99v7.688z"/>
    </g>
</svg>
